<svg xmlns="http://www.w3.org/2000/svg" width="64" height="64" viewBox="0 0 64 64">
    <defs>
        <clipPath id="ig1micux3a">
            <path data-name="Rectangle 18963" transform="translate(-259 11236)" style="fill:#fff;stroke:#707070" d="M0 0h64v64H0z"/>
        </clipPath>
    </defs>
    <g data-name="logo icon" transform="translate(259 -11236)" style="clip-path:url(#ig1micux3a)">
        <g data-name="Group 5">
            <g data-name="Group 4">
                <path data-name="Path 1" d="M501.213 90.015a3.579 3.579 0 0 1-1.147 1.755 5.5 5.5 0 0 1-4.146 1.466 4.757 4.757 0 0 1-4.565-4.186 5.269 5.269 0 0 1 4.554-6.089 5.149 5.149 0 0 1 5 2.136 1.834 1.834 0 0 1 .431 1.054c-1.606.231-2.337.847-2.316 1.935.022 1.145.719 1.764 2.188 1.931" transform="translate(-721.828 11180.354)" style="fill:#32519b"/>
            </g>
        </g>
        <path data-name="Path 2" d="M450.622 33.611a16.951 16.951 0 0 1-16.727 2.7c-2.606-.955-4.881-2.69-7.274-3.909-5.431-2.971-11.267.264-16.087 3.185 5.364-5.448 9.633-6.454 12.565-6.342 6.066.236 8.672 5.325 16.014 6.342a20.8 20.8 0 0 0 11.509-1.972" transform="translate(-647.599 11229.681)" style="fill:#11b3cf"/>
        <g data-name="Group 6">
            <path data-name="Path 3" d="M450.622 11.107a20.8 20.8 0 0 1-11.509 1.972c-7.341-1.017-9.948-6.106-16.014-6.342-2.932-.112-7.2.893-12.565 6.342 4.51-7.712 12.75-11.026 20.586-5.8 6.577 4.527 11.7 5.291 19.5 3.825" transform="translate(-647.599 11252.185)" style="fill:#32519b"/>
        </g>
        <path data-name="Path 4" d="M202.963 150.446a20.776 20.776 0 0 1-11.509 1.971c-7.335-1.017-9.942-6.106-16.008-6.341-2.932-.107-7.207.893-12.57 6.341 4.516-7.712 12.756-11.026 20.591-5.8 6.577 4.527 11.694 5.291 19.5 3.825" transform="translate(-419.987 11124.125)" style="fill:#11b3cf"/>
        <g data-name="Group 7">
            <path data-name="Path 5" d="M202.963 172.959a16.941 16.941 0 0 1-16.721 2.7c-2.606-.955-4.881-2.69-7.274-3.909-5.432-2.971-11.273.264-16.092 3.185 5.364-5.448 9.638-6.448 12.57-6.341 6.066.236 8.673 5.325 16.008 6.341a20.776 20.776 0 0 0 11.509-1.971" transform="translate(-419.987 11101.611)" style="fill:#32519b"/>
        </g>
    </g>
</svg>
